<svg xmlns="http://www.w3.org/2000/svg" viewBox="0 0 242.39 156.99"><defs><style>.cls-1,.cls-11,.cls-2,.cls-5{fill:#fff;}.cls-2{font-size:32.59px;font-family:Montserrat-Black, Montserrat;font-weight:800;}.cls-3,.cls-4,.cls-5{font-family:Montserrat-Regular, Montserrat;}.cls-3,.cls-4{font-weight:400;}.cls-4{letter-spacing:-0.03em;}.cls-5{font-size:9.82px;letter-spacing:0.26em;}.cls-6{letter-spacing:0.28em;}.cls-7{letter-spacing:0.26em;}.cls-8{letter-spacing:0.25em;}.cls-9{letter-spacing:0.26em;}.cls-10{letter-spacing:0.26em;}.cls-11{font-size:12px;font-family:ArialRoundedMTBold, Arial Rounded MT Bold;}.cls-12{letter-spacing:-0.01em;}</style></defs><g id="OBJECTS"><path class="cls-1" d="M175.66,60.69a31.2,31.2,0,0,0-10.23,1.73L156,38.62h11.88a2.33,2.33,0,1,1,0,4.66h-4.59a1.37,1.37,0,0,0,0,2.74h4.59a5.07,5.07,0,1,0,0-10.13h-14l-.15,0-.17,0-.08,0h0l-.17.09-.07,0-.12.09-.09.08a.27.27,0,0,0-.07.08l-.1.12-.05.09-.08.14s0,.06,0,.08l-.06.17V37a1.49,1.49,0,0,0,0,.21h0v.07c0,.06,0,.12,0,.18s0,.1,0,.15l0,.1,2.83,7.13H106.81l-2-6.08,11-2.19.15,0a1.21,1.21,0,0,0-.15-2.39L96,32.66l-.49,0a3.58,3.58,0,0,0-1.08.07A4,4,0,1,0,96,40.57l6.15-1.22,2.22,6.75L93.64,64.34A31,31,0,0,0,79,60.69a31.29,31.29,0,1,0,31.25,32.66H113a8,8,0,0,0,7.28,6.59v8.74h-2.19a.59.59,0,0,0,0,1.17h5.54a.59.59,0,0,0,0-1.17h-2.19V99.94a8,8,0,0,0,5.41-13.23L157.15,49l5.74,14.48a31.25,31.25,0,1,0,12.77-2.74ZM105.47,49.56l11.62,35.37A8,8,0,0,0,113,90.62h-2.72A31.31,31.31,0,0,0,96,65.72ZM82.83,90.62a3.92,3.92,0,0,0-.71-1.24L93.64,69.73a26.63,26.63,0,0,1,12,20.89Zm-3.82,28A26.64,26.64,0,1,1,91.29,68.35L79.77,88a4.67,4.67,0,0,0-.76-.07,4.07,4.07,0,1,0,3.82,5.44h22.79A26.68,26.68,0,0,1,79,118.62Zm41.83-21.39A5.26,5.26,0,0,1,115.59,92V92a5.25,5.25,0,1,1,5.25,5.28ZM124.71,85a8,8,0,0,0-3.87-1,8.77,8.77,0,0,0-1.15.09l-12-36.45h47Zm51,33.63A26.64,26.64,0,0,1,164.6,67.75L173,88.93a4.06,4.06,0,1,0,2.68-1h-.14l-8.38-21.18a26.64,26.64,0,1,1,8.52,51.88Z" transform="translate(-12.65 -32.61)"/><text class="cls-2" transform="translate(6.96 122.09)">BIKE<tspan class="cls-3" x="83.46" y="0">REN</tspan><tspan class="cls-4" x="155.32" y="0">T</tspan><tspan class="cls-3" x="172.89" y="0">AL</tspan></text><text class="cls-5" transform="translate(0 138.61)">Se<tspan class="cls-6" x="17.08" y="0">r</tspan><tspan x="23.71" y="0">vicio N</tspan><tspan class="cls-7" x="74.43" y="0">a</tspan><tspan x="82.8" y="0">cional de Ap</tspan><tspan class="cls-8" x="174.27" y="0">r</tspan><tspan x="180.64" y="0">e</tspan><tspan class="cls-9" x="189.12" y="0">n</tspan><tspan class="cls-10" x="198.34" y="0">dizaje</tspan></text><text class="cls-11" transform="translate(95.06 154.46)">SE<tspan class="cls-12" x="16.01" y="0">N</tspan><tspan x="24.97" y="0">A</tspan></text></g></svg>